<svg width="206" height="141" viewBox="0 0 206 141" fill="none" xmlns="http://www.w3.org/2000/svg">
<ellipse cx="135.694" cy="70.5" rx="70.3062" ry="70.5" fill="#9E00FF"/>
<ellipse cx="149.581" cy="65.858" rx="56.4185" ry="56.5741" fill="url(#paint0_radial_14_158)" fill-opacity="0.66"/>
<rect x="18.9326" y="58.605" width="149.871" height="30.7531" fill="black"/>
<path d="M40.072 61L31.336 85C30.44 87.528 29.464 89.544 28.408 91.048C27.352 92.552 26.104 93.64 24.664 94.312C23.224 94.984 21.496 95.32 19.48 95.32C18.136 95.32 16.904 95.176 15.784 94.888C14.664 94.6 13.688 94.2 12.856 93.688L14.488 88.168C15.064 88.584 15.672 88.872 16.312 89.032C16.952 89.224 17.768 89.32 18.76 89.32C19.688 89.32 20.44 89.16 21.016 88.84C21.624 88.52 22.104 87.912 22.456 87.016L23.08 85.528L20.296 79L13.096 61H22.072L25.768 74.68L26.92 79.768L28.264 74.488L31.96 61H40.072ZM55.8513 69.784C55.8513 68.664 55.5313 67.784 54.8913 67.144C54.2833 66.472 53.4513 66.136 52.3953 66.136C51.3393 66.136 50.4273 66.408 49.6593 66.952C48.9233 67.464 48.4113 68.392 48.1233 69.736L41.2113 68.104C41.6593 65.8 42.8433 63.96 44.7633 62.584C46.6833 61.208 49.3873 60.52 52.8753 60.52C55.2113 60.52 57.1953 60.872 58.8273 61.576C60.4913 62.248 61.7553 63.272 62.6193 64.648C63.5153 65.992 63.9633 67.656 63.9633 69.64V78.424C63.9633 79.672 64.5233 80.296 65.6433 80.296C66.2193 80.296 66.6833 80.232 67.0353 80.104L66.5553 84.76C65.5953 85.208 64.4273 85.432 63.0513 85.432C61.8033 85.432 60.6993 85.24 59.7393 84.856C58.7793 84.44 58.0273 83.832 57.4833 83.032C56.9393 82.2 56.6673 81.16 56.6673 79.912V79.624L57.5793 79.288C57.5793 80.664 57.1633 81.816 56.3313 82.744C55.5313 83.672 54.4753 84.36 53.1633 84.808C51.8833 85.256 50.5393 85.48 49.1313 85.48C47.4993 85.48 46.0753 85.224 44.8593 84.712C43.6433 84.2 42.6993 83.464 42.0273 82.504C41.3873 81.512 41.0673 80.296 41.0673 78.856C41.0673 77.128 41.5793 75.704 42.6033 74.584C43.6593 73.432 45.3073 72.632 47.5473 72.184L56.6193 70.312L56.5713 74.632L51.9633 75.592C51.0033 75.784 50.2833 76.072 49.8033 76.456C49.3553 76.808 49.1313 77.352 49.1313 78.088C49.1313 78.792 49.3873 79.32 49.8993 79.672C50.4113 80.024 51.0193 80.2 51.7233 80.2C52.2673 80.2 52.7793 80.12 53.2593 79.96C53.7713 79.8 54.2193 79.56 54.6033 79.24C54.9873 78.888 55.2913 78.456 55.5153 77.944C55.7393 77.432 55.8513 76.824 55.8513 76.12V69.784ZM80.3361 85.48C77.9361 85.48 75.6961 85.096 73.6161 84.328C71.5681 83.528 69.8721 82.392 68.5281 80.92L72.3681 76.408C73.1681 77.432 74.2241 78.296 75.5361 79C76.8801 79.672 78.3681 80.008 80.0001 80.008C80.9921 80.008 81.8081 79.864 82.4481 79.576C83.0881 79.288 83.4081 78.84 83.4081 78.232C83.4081 77.784 83.2481 77.432 82.9281 77.176C82.6081 76.888 81.9681 76.648 81.0081 76.456L77.6481 75.784C74.6401 75.176 72.4961 74.28 71.2161 73.096C69.9681 71.88 69.3441 70.296 69.3441 68.344C69.3441 67.032 69.7441 65.784 70.5441 64.6C71.3441 63.384 72.5761 62.408 74.2401 61.672C75.9041 60.904 78.0321 60.52 80.6241 60.52C83.0561 60.52 85.2001 60.872 87.0561 61.576C88.9121 62.28 90.3841 63.304 91.4721 64.648L87.5841 69.064C86.8161 68.104 85.8241 67.352 84.6081 66.808C83.3921 66.264 82.1761 65.992 80.9601 65.992C80.1921 65.992 79.5361 66.072 78.9921 66.232C78.4801 66.36 78.0961 66.552 77.8401 66.808C77.5841 67.064 77.4561 67.384 77.4561 67.768C77.4561 68.184 77.6481 68.552 78.0321 68.872C78.4481 69.16 79.2001 69.416 80.2881 69.64L84.6561 70.504C87.1201 70.952 88.8961 71.768 89.9841 72.952C91.0721 74.136 91.6161 75.56 91.6161 77.224C91.6161 78.792 91.2001 80.2 90.3681 81.448C89.5361 82.696 88.2881 83.688 86.6241 84.424C84.9601 85.128 82.8641 85.48 80.3361 85.48ZM95.8499 85V61H103.146L103.386 65.656C104.154 63.96 105.226 62.68 106.602 61.816C108.01 60.952 109.626 60.52 111.45 60.52C113.242 60.52 114.794 60.92 116.106 61.72C117.418 62.52 118.394 63.704 119.034 65.272C119.546 64.216 120.202 63.336 121.002 62.632C121.834 61.928 122.778 61.4 123.834 61.048C124.89 60.696 125.978 60.52 127.098 60.52C128.698 60.52 130.106 60.84 131.322 61.48C132.538 62.088 133.498 63.032 134.202 64.312C134.938 65.56 135.306 67.128 135.306 69.016V85H127.146V70.888C127.146 69.352 126.842 68.28 126.234 67.672C125.658 67.064 124.874 66.76 123.882 66.76C123.082 66.76 122.346 66.968 121.674 67.384C121.034 67.768 120.538 68.36 120.186 69.16C119.834 69.96 119.658 70.968 119.658 72.184V85H111.498V70.888C111.498 69.352 111.194 68.28 110.586 67.672C109.978 67.064 109.194 66.76 108.234 66.76C107.498 66.76 106.794 66.952 106.122 67.336C105.482 67.72 104.97 68.328 104.586 69.16C104.202 69.96 104.01 71.016 104.01 72.328V85H95.8499ZM154.429 69.784C154.429 68.664 154.109 67.784 153.469 67.144C152.861 66.472 152.029 66.136 150.973 66.136C149.917 66.136 149.005 66.408 148.237 66.952C147.501 67.464 146.989 68.392 146.701 69.736L139.789 68.104C140.237 65.8 141.421 63.96 143.341 62.584C145.261 61.208 147.965 60.52 151.453 60.52C153.789 60.52 155.773 60.872 157.405 61.576C159.069 62.248 160.333 63.272 161.197 64.648C162.093 65.992 162.541 67.656 162.541 69.64V78.424C162.541 79.672 163.101 80.296 164.221 80.296C164.797 80.296 165.261 80.232 165.613 80.104L165.133 84.76C164.173 85.208 163.005 85.432 161.629 85.432C160.381 85.432 159.277 85.24 158.317 84.856C157.357 84.44 156.605 83.832 156.061 83.032C155.517 82.2 155.245 81.16 155.245 79.912V79.624L156.157 79.288C156.157 80.664 155.741 81.816 154.909 82.744C154.109 83.672 153.053 84.36 151.741 84.808C150.461 85.256 149.117 85.48 147.709 85.48C146.077 85.48 144.653 85.224 143.437 84.712C142.221 84.2 141.277 83.464 140.605 82.504C139.965 81.512 139.645 80.296 139.645 78.856C139.645 77.128 140.157 75.704 141.181 74.584C142.237 73.432 143.885 72.632 146.125 72.184L155.197 70.312L155.149 74.632L150.541 75.592C149.581 75.784 148.861 76.072 148.381 76.456C147.933 76.808 147.709 77.352 147.709 78.088C147.709 78.792 147.965 79.32 148.477 79.672C148.989 80.024 149.597 80.2 150.301 80.2C150.845 80.2 151.357 80.12 151.837 79.96C152.349 79.8 152.797 79.56 153.181 79.24C153.565 78.888 153.869 78.456 154.093 77.944C154.317 77.432 154.429 76.824 154.429 76.12V69.784Z" fill="white"/>
<defs>
<radialGradient id="paint0_radial_14_158" cx="0" cy="0" r="1" gradientUnits="userSpaceOnUse" gradientTransform="translate(149.582 65.858) rotate(90) scale(56.5741 56.4185)">
<stop offset="0.654934" stop-color="#FF001F"/>
<stop offset="1" stop-color="#FF001F" stop-opacity="0.12"/>
</radialGradient>
</defs>
</svg>
